<?xml version="1.0" encoding="utf-8"?>
<!-- Generator: Adobe Illustrator 27.6.1, SVG Export Plug-In . SVG Version: 6.00 Build 0)  -->
<svg version="1.1" id="icon" xmlns="http://www.w3.org/2000/svg" xmlns:xlink="http://www.w3.org/1999/xlink" x="0px" y="0px"
	 width="200px" height="200px" viewBox="0 0 200 200" style="enable-background:new 0 0 200 200;" xml:space="preserve">
<style type="text/css">
	.st0{fill:#0D1139;}
	.st1{fill:none;stroke:#0D1139;stroke-width:3;stroke-miterlimit:10;}
	.st2{fill:none;stroke:#0D1139;stroke-width:2;stroke-miterlimit:10;}
</style>
<path class="st0" d="M187.1,182.2L187.1,182.2L6.5,181c-3.6,0-6.5-3-6.5-6.6c0-3.6,2.9-6.5,6.5-6.5h0.1l180.6,1.2
	c3.6,0,6.5,3,6.5,6.6C193.6,179.3,190.7,182.2,187.1,182.2L187.1,182.2z"/>
<g>
	<path class="st0" d="M155.4,73.6c0.3,0.2,0.5,0.4,0.8,0.7c0.3,0.2,0.6,0.4,0.9,0.6c0.1,0.3,0.2,0.7,0.3,1c0.1,0.3,0.2,0.7,0.4,1
		c-0.1,0.3-0.3,0.6-0.4,1c-0.1,0.3-0.2,0.7-0.3,1c-0.3,0.2-0.6,0.4-0.9,0.6c-0.3,0.2-0.6,0.4-0.8,0.7c-0.3,0-0.7-0.1-1.1-0.1
		c-0.4,0-0.7,0-1.1,0.1c-0.3-0.2-0.5-0.4-0.8-0.7c-0.3-0.2-0.6-0.4-0.9-0.6c-0.1-0.3-0.2-0.7-0.3-1c-0.1-0.3-0.2-0.7-0.4-1
		c0.1-0.3,0.3-0.6,0.4-1c0.1-0.3,0.2-0.7,0.3-1c0.3-0.2,0.6-0.4,0.9-0.6c0.3-0.2,0.6-0.4,0.8-0.7c0.3,0,0.7,0.1,1.1,0.1
		C154.7,73.7,155.1,73.7,155.4,73.6 M150.5,63.3c-0.2,0-0.4,0-0.5,0.1c-1.4,0.4-1.9,2.5-3,3.3c-1.1,0.8-3.3,0.7-4.1,1.8
		c-0.8,1.1-0.1,3.1-0.5,4.5c-0.4,1.3-2.2,2.4-2.2,3.9s1.8,2.6,2.2,3.9c0.4,1.4-0.3,3.3,0.5,4.5c0.8,1.1,2.9,1,4.1,1.8
		c1.1,0.8,1.7,2.9,3,3.3c0.2,0.1,0.4,0.1,0.5,0.1c1.2,0,2.6-1,3.8-1s2.6,1,3.8,1c0.2,0,0.4,0,0.5-0.1c1.4-0.4,1.9-2.5,3-3.3
		c1.1-0.8,3.3-0.7,4.1-1.8c0.8-1.1,0.1-3.1,0.5-4.5c0.4-1.3,2.2-2.4,2.2-3.9s-1.8-2.6-2.2-3.9c-0.4-1.4,0.3-3.3-0.5-4.5
		c-0.8-1.1-2.9-1-4.1-1.8c-1.1-0.8-1.7-2.9-3-3.3c-0.2-0.1-0.4-0.1-0.5-0.1c-1.2,0-2.6,1-3.8,1S151.7,63.3,150.5,63.3L150.5,63.3z"
		/>
	<path class="st0" d="M142.7,86.8l-7.5,20.5l6-2l3.3,5.3l6.9-19c-0.3,0.1-0.6,0.1-0.9,0.1s-0.6,0-0.9-0.1c-1.2-0.4-1.9-1.5-2.5-2.4
		c-0.3-0.5-0.6-0.9-0.9-1.2c-0.3-0.2-0.8-0.4-1.4-0.5C144.1,87.5,143.3,87.2,142.7,86.8L142.7,86.8L142.7,86.8z M151.4,91.7
		L151.4,91.7L151.4,91.7z"/>
	<g>
		<path class="st0" d="M178.2,11.3H47.5c-2.4,0-4.3,1.9-4.3,4.3v83.2c0,2.4,1.9,4.3,4.3,4.3h87.8l3.4-9.4H52.5V20.6h120.6v73.1h-3.2
			l3.4,9.4h4.8c2.4,0,4.3-1.9,4.3-4.3V15.6C182.5,13.2,180.5,11.3,178.2,11.3z"/>
		<polygon class="st0" points="148.6,103.1 160,103.1 156.6,93.8 152,93.8 		"/>
	</g>
	<path class="st0" d="M166,86.8c-0.3,0.2-0.7,0.4-1,0.5l0,0c-0.3,0.1-0.7,0.2-1.1,0.3c-0.5,0.1-1.1,0.3-1.4,0.5
		c-0.3,0.2-0.6,0.7-0.9,1.2c-0.6,0.9-1.3,2-2.5,2.4c-0.3,0.1-0.6,0.1-1,0.1c-0.3,0-0.6-0.1-0.9-0.1l0,0l6.9,19l3.3-5.3l5.9,2
		L166,86.8L166,86.8L166,86.8z"/>
	<path class="st0" d="M73.2,90.9c2.4-4.2,3.2-9.1,2.4-13.9c-0.3-1.7-2.9-1-2.6,0.7c0.5,2.6,1.4,5.1,2.8,7.3c1.1,1.7,3.1,4.9,5.5,4.3
		c2.1-0.5,3.4-2.8,4-4.7c0.8-2.5,0.5-5.3,2.2-7.4l-2.4-1c-0.8,4.1,0.3,8.6,3.5,11.4c1.3,1.2,3.5,2,4.7,0.1c0.5-0.8,0.4-1.9,0.3-2.8
		c-0.2-1.4-0.4-2.8-0.8-4.2c-0.4-1.4-2.7-1.2-2.6,0.4c0.5,6,5.8,10.1,11.7,9.2c1.7-0.3,1-2.9-0.7-2.6c-4.2,0.7-8-2.4-8.3-6.6
		l-2.6,0.4c0.2,0.7,0.4,1.5,0.5,2.2c0.1,0.4,0.6,2,0.3,2.3c0.1,0.3,0,0.3-0.4-0.1c-0.2-0.2-0.4-0.4-0.6-0.6
		c-0.4-0.4-0.8-0.9-1.1-1.5c-1.3-2.1-1.7-4.5-1.2-6.9c0.3-1.6-1.5-2.2-2.4-1c-1.2,1.6-1.6,3.5-1.9,5.4c-0.3,1.7-0.5,3.8-1.8,5
		c-0.8,0.8-1.2,0.1-1.8-0.6c-0.7-0.8-1.4-1.8-2-2.8c-1-1.8-1.7-3.8-2-5.8l-2.6,0.7c0.7,4.1-0.1,8.2-2.1,11.8
		C70.1,91,72.4,92.4,73.2,90.9L73.2,90.9L73.2,90.9z"/>
	<line class="st1" x1="84.4" y1="34.2" x2="143.3" y2="34.2"/>
	<line class="st2" x1="70.8" y1="49.9" x2="122.6" y2="49.9"/>
	<line class="st2" x1="70.8" y1="63.3" x2="122.6" y2="63.3"/>
	<line class="st2" x1="70.8" y1="56.6" x2="122.6" y2="56.6"/>
</g>
<g>
	<rect x="57.5" y="31.3" class="st0" width="15.8" height="13"/>
	<path class="st0" d="M187.5,39.9L187.5,39.9l0,36.8c0,0.1,0,0.1,0,0.2v21.9c0,4.7-3.6,8.7-8.1,9.2v24.6c0,5.2-4.3,9.5-9.5,9.5H23
		c-5.2,0-9.5-4.3-9.5-9.5V53.9c0-5.2,4.3-9.5,9.5-9.5h15.2v-13H23c-12.4,0-22.5,10.1-22.5,22.5v78.8c0,12.4,10.1,22.5,22.5,22.5
		h146.9c12.4,0,22.5-10.1,22.5-22.5V53.9C192.4,48.6,190.6,43.7,187.5,39.9z"/>
</g>
</svg>
