<?xml version="1.0" encoding="utf-8"?>
<!-- Generator: Adobe Illustrator 27.6.1, SVG Export Plug-In . SVG Version: 6.00 Build 0)  -->
<svg version="1.1" id="ee13b174-13f0-43ea-b921-f168b1054f8d"
	 xmlns="http://www.w3.org/2000/svg" xmlns:xlink="http://www.w3.org/1999/xlink" x="0px" y="0px" width="35px" height="30px"
	 viewBox="0 0 35 30" style="enable-background:new 0 0 35 30;" xml:space="preserve">
<style type="text/css">
	.st0{fill:#FFFFFF;}
	.st1{fill:#00003C;}
</style>
<path class="st0" d="M28.8,27.3H6.2C3.3,27.3,1,25,1,22.2V7.8C1,5,3.3,2.7,6.2,2.7h22.7C31.7,2.7,34,5,34,7.8v14.3
	C33.9,25,31.6,27.3,28.8,27.3z"/>
<path class="st1" d="M29.4,27.9H5.6c-3,0-5.4-2.4-5.4-5.4v-15c0-3,2.4-5.4,5.4-5.4h23.8c3,0,5.4,2.4,5.4,5.4v15
	C34.7,25.5,32.3,27.9,29.4,27.9z M5.6,4.6C4,4.6,2.8,5.9,2.8,7.5v15c0,1.6,1.3,2.9,2.9,2.9h23.8c1.6,0,2.9-1.3,2.9-2.9v-15
	c0-1.6-1.3-2.9-2.9-2.9C29.5,4.6,5.6,4.6,5.6,4.6z"/>
<path class="st1" d="M17.5,21.4c-1,0-2.1-0.3-2.9-1L1.2,9.7C0.7,9.3,0.6,8.5,1,8s1.2-0.6,1.8-0.2l13.4,10.7c0.8,0.6,1.9,0.6,2.7,0
	L32,7.8c0.5-0.4,1.3-0.3,1.8,0.2c0.4,0.5,0.3,1.3-0.2,1.8l0,0L20.4,20.4C19.6,21,18.5,21.4,17.5,21.4z"/>
</svg>
