<?xml version="1.0" encoding="utf-8"?>
<!-- Generator: Adobe Illustrator 27.6.1, SVG Export Plug-In . SVG Version: 6.00 Build 0)  -->
<svg version="1.1" id="icon" xmlns="http://www.w3.org/2000/svg" xmlns:xlink="http://www.w3.org/1999/xlink" x="0px" y="0px"
	 width="35px" height="30px" viewBox="0 0 35 30" style="enable-background:new 0 0 35 30;" xml:space="preserve">
<style type="text/css">
	.st0{fill:#FFFFFF;}
</style>
<g id="email">
	<path class="st0" d="M19.1,19l15-12.2c0.1-0.1,0.3-0.2,0.5-0.2V6.4c0-1.8-1.5-3.3-3.3-3.3H3.9C2,3.1,0.7,4.6,0.7,6.4v0.3L16,19
		C16.9,19.7,18.2,19.7,19.1,19z"/>
	<path class="st0" d="M20.8,21.2c-0.9,0.7-2.2,1.1-3.3,1.1s-2.4-0.3-3.3-1.1L0.7,10.4v13.2c0,1.8,1.5,3.3,3.3,3.3h27.2
		c1.8,0,3.3-1.5,3.3-3.3V10.2L20.8,21.2z"/>
</g>
</svg>
