<?xml version="1.0" encoding="utf-8"?>
<!-- Generator: Adobe Illustrator 27.6.1, SVG Export Plug-In . SVG Version: 6.00 Build 0)  -->
<svg version="1.1" id="Layer_1" xmlns="http://www.w3.org/2000/svg" xmlns:xlink="http://www.w3.org/1999/xlink" x="0px" y="0px"
	 width="35px" height="30px" viewBox="0 0 35 30" style="enable-background:new 0 0 35 30;" xml:space="preserve">
<style type="text/css">
	.st0{fill:#FFFFFF;}
</style>
<path class="st0" d="M17.5,0.9c8,0,14.5,6.5,14.5,14.5c0,6.2-4,11.7-9.9,13.7c-0.7,0.1-1-0.3-1-0.7c0-0.5,0-2,0-4
	c0-1.4-0.5-2.2-1-2.7c3.2-0.4,6.6-1.6,6.6-7.1c0-1.6-0.6-2.9-1.5-3.9c0.1-0.4,0.7-1.8-0.1-3.8c0,0-1.2-0.4-4,1.5
	C20,8,18.8,7.9,17.5,7.9S15.1,8,13.9,8.4c-2.8-1.9-4-1.5-4-1.5c-0.8,2-0.3,3.5-0.1,3.8c-0.9,1-1.5,2.3-1.5,3.9
	c0,5.5,3.4,6.8,6.6,7.1c-0.4,0.4-0.8,1-0.9,1.9c-0.8,0.4-2.9,1-4.2-1.2C9.5,22,8.7,21,7.5,21c-1.2,0-0.5,0.7,0,1
	c0.6,0.3,1.3,1.6,1.5,2c0.3,0.8,1.2,2.4,4.9,1.7c0,1.2,0,2.3,0,2.7c0,0.4-0.3,0.8-1,0.7C7,27.1,3,21.6,3,15.4
	C3,7.4,9.5,0.9,17.5,0.9z"/>
</svg>
