<?xml version="1.0" encoding="UTF-8"?>
<svg id="icon" xmlns="http://www.w3.org/2000/svg" xmlns:xlink="http://www.w3.org/1999/xlink" x="0px" y="0px" width="200px" height="200px"
	 viewBox="0 0 200 200" style="enable-background:new 0 0 200 200;" xml:space="preserve">
  <defs>
    <style>
      .cls-1 {
        fill: #0d1139;
      }
    </style>
  </defs>
  <g id="graphic-design">
    <g>
      <path class="cls-1" d="m187.08,182.2h-.05l-180.56-1.23c-3.6-.03-6.5-2.96-6.48-6.57.02-3.59,2.94-6.48,6.52-6.48h.05l180.56,1.23c3.6.03,6.5,2.96,6.48,6.57-.02,3.59-2.94,6.48-6.52,6.48Z"/>
      <path class="cls-1" d="m176.92,47.55c1.5,1.68,2.43,3.89,2.43,6.32v78.77c0,5.24-4.26,9.51-9.51,9.51H22.97c-5.24,0-9.51-4.26-9.51-9.51V53.87c0-5.24,4.26-9.51,9.51-9.51h102.98l12.39-13.04H22.97C10.52,31.33.42,41.42.42,53.87v78.77c0,12.45,10.09,22.55,22.55,22.55h146.88c12.45,0,22.55-10.09,22.55-22.55V53.87c0-5.52-1.99-10.56-5.28-14.48l-10.19,8.16Z"/>
    </g>
    <g id="pincel">
      <path class="cls-1" d="m108.89,97.75c1.45,25.12-43.22,23.83-41.62,23.42,3.91-1,.72-38.25,26.02-36.88,7.72.42,15.15,5.74,15.6,13.46Z"/>
      <path class="cls-1" d="m175.41,21.35c-2.66-2.93-5.35-6.16-7.66-9.15l-61.96,65.22c-2.22,2.33-.83,5.23,1.51,7.57,2.37,2.38,5.91,3.15,8.73.9l69.03-55.29c-3.28-2.79-6.77-6.08-9.65-9.25Z"/>
      <path class="cls-1" d="m180.3,16.9c2.96,3.25,6.2,6.95,8.98,10.32l5.01-4.01c6.34-5.01,3.78-13.57-1.9-18.7-5.52-4.99-11.16-6.49-16.29-1.1l-4.52,4.76c2.87,2.62,5.97,5.69,8.72,8.73Z"/>
    </g>
  </g>
</svg>