<?xml version="1.0" encoding="utf-8"?>
<!-- Generator: Adobe Illustrator 27.6.1, SVG Export Plug-In . SVG Version: 6.00 Build 0)  -->
<svg version="1.1" id="Layer_1" focusable="false" xmlns="http://www.w3.org/2000/svg" xmlns:xlink="http://www.w3.org/1999/xlink"
	 x="0px" y="0px" width="35px" height="30px" viewBox="0 0 35 30" style="enable-background:new 0 0 35 30;" xml:space="preserve">
<style type="text/css">
	.st0{fill:#FFFFFF;}
</style>
<path class="st0" d="M29.5,0.9h-24C4.3,0.9,3.4,1.8,3.4,3v24c0,1.2,0.9,2.1,2.1,2.1h24c1.2,0,2.1-0.9,2.1-2.1V3
	C31.6,1.8,30.7,0.9,29.5,0.9z M11.9,24.9H7.6V12.2h4.2V24.9z M9.7,9.7c-1.4,0-2.4-1.2-2.4-2.5c0-1.4,1.2-2.4,2.5-2.4
	c1.3,0,2.4,1.1,2.4,2.5C12.3,8.6,11.1,9.7,9.7,9.7z M27.4,24.9h-4.2v-6.7c0-2-0.8-2.7-1.9-2.7c-1.4,0.1-2.4,1.3-2.3,2.6c0,0,0,0,0,0
	c0,0.1,0,0.1,0,0.2v6.6h-4.2V12.2h4.1V14c0.8-1.3,2.3-2,3.8-2c2.2,0,4.7,1.2,4.7,5.2L27.4,24.9z"/>
</svg>
