<?xml version="1.0" encoding="UTF-8"?>
<svg id="icon" xmlns="http://www.w3.org/2000/svg" viewBox="0 0 198 182.2">
  <defs>
    <style>
      .cls-1 {
        fill: #0d1139;
      }

      .cls-2 {
        fill: none;
        stroke: #0d1139;
        stroke-linecap: round;
        stroke-linejoin: round;
        stroke-width: 12px;
      }
    </style>
  </defs>
  <g id="web-design">
    <path class="cls-1" d="m187.08,182.2h-.05l-180.56-1.23c-3.6-.03-6.5-2.96-6.48-6.57.02-3.59,2.94-6.48,6.52-6.48h.05l180.56,1.23c3.6.03,6.5,2.96,6.48,6.57-.02,3.59-2.94,6.48-6.52,6.48Z"/>
    <g>
      <polyline class="cls-2" points="90.51 88.19 60.47 59.13 94.13 28.48"/>
      <polyline class="cls-2" points="161.32 28.48 191.35 57.54 157.69 88.19"/>
      <g>
        <path class="cls-1" d="m187.52,39.92c-.14-.18-.27-.36-.41-.53l-.08.06.48.47Z"/>
        <path class="cls-1" d="m179.35,81.99v50.66c0,5.24-4.26,9.51-9.51,9.51H22.97c-5.24,0-9.51-4.26-9.51-9.51V53.87c0-5.24,4.26-9.51,9.51-9.51h38.86l14.32-13.04H22.97C10.52,31.33.42,41.42.42,53.87v78.77c0,12.45,10.09,22.55,22.55,22.55h146.88c12.45,0,22.55-10.09,22.55-22.55v-62.53l-13.04,11.88Z"/>
      </g>
      <line class="cls-2" x1="150.15" y1="8.78" x2="102.87" y2="107.89"/>
    </g>
  </g>
</svg>